#!OML:ASF F:\VICON\USERDATA\INSTALL\rory3\rory3.ASF
:FULLY-SPECIFIED
:DEGREES
33
root 4.26298 17.6784 1.93182 18.6298 3.39204 -1.79157
lowerback -8.67323 1.17304 12.7299
upperback -13.4517 1.38019 1.42117
thorax -9.61513 -0.452493 -5.52188
lowerneck -1.67982 18.6753 11.0842
upperneck 6.16967 24.2027 4.37592
head 3.07132 12.3748 0.652259
rclavicle 1.07344e-014 -2.14687e-014
rhumerus 2.00479 -23.7458 31.0108
rradius 117.75
rwrist -71.882
rhand -3.203 -42.3485
rfingers 7.12502
rthumb 22.5191 -71.0553
lclavicle 1.07344e-014 -2.14687e-014
lhumerus 33.7194 33.3721 -9.47308
lradius 29.9509
lwrist 40.3135
lhand -26.8044 -16.2182
lfingers 7.12502
lthumb -0.231182 13.7614
rfemur -3.96215 10.1735 -2.33533
rtibia 14.9373
rfoot 22.4293 -15.8926
rtoes -16.7503
lfemur -15.5091 -1.90946 -26.5517
ltibia 11.625
lfoot -12.6918 9.0881
ltoes 12.1644
34
root 4.26655 17.6777 1.94008 18.6573 3.3006 -1.83413
lowerback -8.74396 1.23133 12.734
upperback -13.4633 1.447 1.41577
thorax -9.57473 -0.418074 -5.52832
lowerneck -1.58584 18.6763 11.0364
upperneck 6.02219 24.2233 4.40744
head 2.99186 12.3787 0.644661
rclavicle -1.72943e-014 2.3059e-014
rhumerus 1.94032 -23.7658 30.9537
rradius 117.691
rwrist -71.51
rhand -3.76014 -42.2039
rfingers 7.12502
rthumb 21.9843 -70.9746
lclavicle -1.72943e-014 2.3059e-014
lhumerus 34.2702 33.7906 -8.83954
lradius 29.6951
lwrist 39.23
lhand -26.6508 -16.5784
lfingers 7.12502
lthumb -0.0827722 13.4013
rfemur -4.07334 10.2577 -2.32625
rtibia 14.9345
rfoot 22.5971 -16.0466
rtoes -17.114
lfemur -15.587 -2.07849 -26.5008
ltibia 11.6706
lfoot -12.656 9.35755
ltoes 12.2178
35
root 4.26678 17.6778 1.94657 18.6496 3.32607 -1.82391
lowerback -8.73674 1.23919 12.6504
upperback -13.4767 1.46216 1.40963
thorax -9.58837 -0.403937 -5.4889
lowerneck -1.72068 18.6909 10.9638
upperneck 6.10527 24.2188 4.50795
head 3.0207 12.3818 0.699818
rclavicle 1.03368e-014 -3.18055e-014
rhumerus 1.85093 -23.9674 30.9075
rradius 117.584
rwrist -71.3972
rhand -4.20409 -42.4733
rfingers 7.12502
rthumb 21.558 -71.2935
lclavicle 1.03368e-014 -3.18055e-014
lhumerus 34.4657 33.8164 -8.71431
lradius 29.6166
lwrist 38.6258
lhand -26.7272 -16.6933
lfingers 7.12502
lthumb -0.156639 13.2864
rfemur -4.11151 10.4244 -2.28915
rtibia 15.0135
rfoot 22.4645 -16.3235
rtoes -17.5943
lfemur -15.5504 -2.25564 -26.471
ltibia 11.6165
lfoot -12.5783 9.51508
ltoes 12.396
36
root 4.26804 17.6773 1.95407 18.6057 3.4528 -1.70074
lowerback -8.65772 1.19063 12.5007
upperback -13.5361 1.41786 1.37549
thorax -9.70735 -0.42271 -5.44507
lowerneck -1.60485 18.6545 11.0583
upperneck 5.93107 24.198 4.34872
head 2.9738 12.3616 0.620129
rclavicle -2.28602e-014 -7.95139e-016
rhumerus 1.76138 -24.0906 30.9711
rradius 117.559
rwrist -71.341
rhand -3.98707 -42.6725
rfingers 7.12502
rthumb 21.7664 -71.4686
lclavicle -2.28602e-014 -7.95139e-016
lhumerus 34.5207 33.6329 -8.79513
lradius 29.591
lwrist 38.2244
lhand -26.4775 -16.7742
lfingers 7.12502
lthumb 0.0845271 13.2055
rfemur -4.00145 10.4121 -2.32038
rtibia 15.1135
rfoot 22.3072 -16.5601
rtoes -17.6486
lfemur -15.4208 -2.39698 -26.5603
ltibia 11.5547
lfoot -12.5767 9.48958
ltoes 12.6323
37
root 4.27158 17.6757 1.96754 18.5759 3.52652 -1.64768
lowerback -8.63936 1.15376 12.4289
upperback -13.6074 1.37907 1.36014
thorax -9.80784 -0.444548 -5.4224
lowerneck -1.35621 18.6334 11.0361
upperneck 5.59324 24.2207 4.3154
head 2.81329 12.3569 0.5612
rclavicle 5.36719e-015 -7.95139e-015
rhumerus 1.69143 -24.1611 31.0331
rradius 117.618
rwrist -71.4386
rhand -3.52059 -42.7764
rfingers 7.12502
rthumb 22.2143 -71.5199
lclavicle 5.36719e-015 -7.95139e-015
lhumerus 34.672 33.5446 -8.73852
lradius 29.5272
lwrist 37.8275
lhand -25.4997 -16.836
lfingers 7.12502
lthumb 1.02891 13.1413
rfemur -3.90074 10.3158 -2.31177
rtibia 15.1892
rfoot 22.1624 -16.6159
rtoes -17.7831
lfemur -15.3196 -2.34577 -26.636
ltibia 11.577
lfoot -12.659 9.38495
ltoes 12.4446
38
root 4.27664 17.6738 1.98007 18.6031 3.48267 -1.69469
lowerback -8.70845 1.18213 12.4359
upperback -13.654 1.41035 1.36574
thorax -9.81795 -0.43174 -5.41853
lowerneck -1.28363 18.6744 10.8785
upperneck 5.52205 24.2838 4.53734
head 2.72415 12.3877 0.625944
rclavicle 1.23246e-014 -1.82882e-014
rhumerus 1.58618 -24.2979 31.0856
rradius 117.642
rwrist -71.5709
rhand -3.03146 -42.9675
rfingers 7.12502
rthumb 22.6838 -71.6543
lclavicle 1.23246e-014 -1.82882e-014
lhumerus 34.5826 33.2465 -9.00951
lradius 29.5864
lwrist 37.8715
lhand -24.6764 -16.5965
lfingers 7.12502
lthumb 1.82413 13.3754
rfemur -3.90807 10.2296 -2.27346
rtibia 15.1778
rfoot 22.0915 -16.5203
rtoes -17.9839
lfemur -15.3677 -2.22971 -26.6449
ltibia 11.7293
lfoot -12.7981 9.37167
ltoes 12.0978
39
root 4.28571 17.6688 1.99171 18.6432 3.40649 -1.78436
lowerback -8.84431 1.25363 12.5498
upperback -13.6731 1.48287 1.3629
thorax -9.75251 -0.403958 -5.48157
lowerneck -1.27355 18.7486 10.7153
upperneck 5.56085 24.3751 4.82175
head 2.67544 12.4386 0.724356
rclavicle -1.39149e-015 -1.43125e-014
rhumerus 1.5257 -24.3911 31.0372
rradius 117.588
rwrist -71.4864
rhand -2.37679 -43.2032
rfingers 7.12502
rthumb 23.312 -71.8118
lclavicle -1.39149e-015 -1.43125e-014
lhumerus 34.3924 32.8747 -9.4041
lradius 29.6852
lwrist 37.9459
lhand -24.8428 -16.3057
lfingers 7.12502
lthumb 1.66335 13.6676
rfemur -3.89145 10.0462 -2.24006
rtibia 15.0511
rfoot 22.3253 -16.4143
rtoes -17.802
lfemur -15.4711 -2.25188 -26.6018
ltibia 11.993
lfoot -13.026 9.48538
ltoes 12.2013
40
root 4.29631 17.6635 2.00401 18.6199 3.36927 -1.92568
lowerback -8.98347 1.31977 12.755
upperback -13.6331 1.53995 1.3672
thorax -9.62122 -0.385838 -5.58731
lowerneck -1.2708 18.7807 10.6982
upperneck 5.49186 24.4209 4.84119
head 2.6468 12.4584 0.728073
rclavicle 6.95746e-015 -2.22639e-014
rhumerus 1.48019 -24.5439 30.9455
rradius 117.502
rwrist -71.4958
rhand -1.88703 -43.4315
rfingers 7.12502
rthumb 23.7817 -71.9798
lclavicle 6.95746e-015 -2.22639e-014
lhumerus 34.3395 32.7377 -9.58725
lradius 29.711
lwrist 37.7864
lhand -25.4916 -16.2353
lfingers 7.12502
lthumb 1.03673 13.742
rfemur -3.76614 9.93334 -2.1284
rtibia 14.8693
rfoot 22.6078 -16.4434
rtoes -17.6457
lfemur -15.5347 -2.22745 -26.5048
ltibia 12.2969
lfoot -13.266 9.55112
ltoes 12.4986
41
root 4.30524 17.6606 2.01452 18.5406 3.42095 -2.0612
lowerback -9.04213 1.34889 12.9593
upperback -13.5959 1.56051 1.368
thorax -9.54704 -0.389153 -5.69798
lowerneck -1.14029 18.7471 10.8464
upperneck 5.36346 24.4034 4.64054
head 2.62744 12.4415 0.63547
rclavicle -7.95139e-015 1.82882e-014
rhumerus 1.3966 -24.6819 30.982
rradius 117.477
rwrist -71.7316
rhand -2.00786 -43.6004
rfingers 7.12502
rthumb 23.6659 -72.1637
lclavicle -7.95139e-015 1.82882e-014
lhumerus 34.4316 32.6817 -9.62532
lradius 29.7034
lwrist 37.7687
lhand -25.632 -16.3295
lfingers 7.12502
lthumb 0.901196 13.6483
rfemur -3.56752 9.91311 -1.94709
rtibia 14.7065
rfoot 22.6531 -16.5265
rtoes -17.6976
lfemur -15.5736 -2.07858 -26.4016
ltibia 12.5632
lfoot -13.4306 9.41966
ltoes 12.4502
42
root 4.31455 17.6563 2.01889 18.474 3.50242 -2.09966
lowerback -9.06052 1.34373 13.1056
upperback -13.5894 1.54522 1.3518
thorax -9.5377 -0.411009 -5.79634
lowerneck -0.87717 18.7035 10.9656
upperneck 5.21342 24.3917 4.47627
head 2.56864 12.4264 0.539458
rclavicle 1.27222e-014 -8.74653e-015
rhumerus 1.43247 -24.694 30.9396
rradius 117.455
rwrist -71.8933
rhand -2.81142 -43.6229
rfingers 7.12502
rthumb 22.8949 -72.2837
lclavicle 1.27222e-014 -8.74653e-015
lhumerus 34.5095 32.621 -9.65612
lradius 29.6762
lwrist 37.7345
lhand -25.4419 -16.3781
lfingers 7.12502
lthumb 1.08477 13.5989
rfemur -3.40404 9.81425 -1.85865
rtibia 14.6222
rfoot 22.587 -16.5018
rtoes -17.4527
lfemur -15.5976 -2.00021 -26.3882
ltibia 12.7336
lfoot -13.5271 9.24701
ltoes 12.4463
43
root 4.32037 17.6514 2.01868 18.4459 3.47147 -2.0136
lowerback -9.10972 1.32594 13.0524
upperback -13.6046 1.51512 1.33833
thorax -9.53132 -0.422179 -5.78145
lowerneck -0.637218 18.6973 11.0154
upperneck 5.15335 24.4209 4.41414
head 2.52249 12.4369 0.489117
rclavicle 9.14409e-015 2.22639e-014
rhumerus 1.64443 -24.7077 30.7011
rradius 117.326
rwrist -71.7574
rhand -3.47294 -43.5825
rfingers 7.12502
rthumb 22.26 -72.3205
lclavicle 9.14409e-015 2.22639e-014
lhumerus 34.5625 32.6269 -9.61359
lradius 29.5868
lwrist 37.2633
lhand -25.6649 -16.2743
lfingers 7.12502
lthumb 0.869371 13.7036
rfemur -3.36177 9.79304 -1.9439
rtibia 14.6229
rfoot 22.5285 -16.5068
rtoes -16.9218
lfemur -15.6454 -2.01228 -26.5096
ltibia 12.8509
lfoot -13.5296 9.25879
ltoes 12.4916
